<?xml version="1.0" standalone="no"?><!DOCTYPE svg PUBLIC "-//W3C//DTD SVG 1.1//EN" "http://www.w3.org/Graphics/SVG/1.1/DTD/svg11.dtd"><svg t="1774832300895" class="icon" viewBox="0 0 1024 1024" version="1.1" xmlns="http://www.w3.org/2000/svg" p-id="5496" xmlns:xlink="http://www.w3.org/1999/xlink" width="32" height="32"><path d="M300.608 957.376l523.36-351.36s23.616-13.056 23.616-33.824c0-27.648-29.856-36.576-29.856-36.576l-287.904-110.4c-10.304-3.936-24.48 6.976-11.2 20.864l95.296 92.416s26.496 25.248 26.496 41.76c0 16.544-16.224 31.232-16.224 31.232L277.312 936.128c-12.32 11.552 4.352 32.48 23.296 21.248z" fill="#2379F4" p-id="5497"></path><path d="M723.36 66.624L200 417.984s-23.584 13.12-23.584 33.888c0 27.584 29.824 36.608 29.824 36.608l287.936 110.336c10.304 3.84 24.48-7.04 11.2-20.832l-95.296-92.704s-26.56-25.216-26.56-41.76c0-16.608 16.32-31.232 16.32-31.232L746.464 87.84c12.544-11.52-4.096-32.512-23.072-21.216z" fill="#2379F4" p-id="5498"></path></svg>